# MagicaVoxel @ ephtracy

# material
mtllib taco4.mtl
usemtl palette

# normals
vn -1 0 0
vn 1 0 0
vn 0 0 1
vn 0 0 -1
vn 0 -1 0
vn 0 1 0

# texcoords
vt 0.974609 0.5
vt 0.978516 0.5

# verts and faces
v -5 0 6
v -5 0 -4
v -5 10 6
v -5 10 -4
f -2/1/1 -3/1/1 -4/1/1
f -1/1/1 -3/1/1 -2/1/1
v -4 13 4
v -4 13 1
v -4 15 4
v -4 15 1
v -4 15 -0
v -4 17 4
v -4 17 1
v -4 17 -0
v -4 18 4
v -4 18 1
f -8/2/1 -9/2/1 -10/2/1
f -7/2/1 -9/2/1 -8/2/1
f -5/1/1 -7/1/1 -8/1/1
f -5/1/1 -6/1/1 -7/1/1
f -4/1/1 -6/1/1 -5/1/1
f -3/1/1 -6/1/1 -4/1/1
f -2/2/1 -4/2/1 -5/2/1
f -1/2/1 -4/2/1 -2/2/1
v -3 15 -0
v -3 15 -2
v -3 17 -0
v -3 17 -2
f -2/1/1 -3/1/1 -4/1/1
f -1/1/1 -3/1/1 -2/1/1
v -2 15 -2
v -2 15 -6
v -2 17 -2
v -2 17 -6
f -2/1/1 -3/1/1 -4/1/1
f -1/1/1 -3/1/1 -2/1/1
v -1 10 4
v -1 10 1
v -1 13 4
v -1 13 1
f -2/2/1 -3/2/1 -4/2/1
f -1/2/1 -3/2/1 -2/2/1
v 1 15 -1
v 1 15 -5
v 1 17 -1
v 1 17 -5
f -2/1/1 -3/1/1 -4/1/1
f -1/1/1 -3/1/1 -2/1/1
v 2 15 4
v 2 15 1
v 2 15 -1
v 2 17 4
v 2 17 1
v 2 17 -1
v 2 18 4
v 2 18 1
f -5/1/1 -7/1/1 -8/1/1
f -5/1/1 -6/1/1 -7/1/1
f -4/1/1 -6/1/1 -5/1/1
f -3/1/1 -6/1/1 -4/1/1
f -2/2/1 -4/2/1 -5/2/1
f -1/2/1 -4/2/1 -2/2/1
v -2 15 4
v -2 15 1
v -2 15 -1
v -2 17 4
v -2 17 1
v -2 17 -1
v -2 18 4
v -2 18 1
f -8/1/2 -7/1/2 -5/1/2
f -7/1/2 -6/1/2 -5/1/2
f -5/1/2 -6/1/2 -4/1/2
f -4/1/2 -6/1/2 -3/1/2
f -5/2/2 -4/2/2 -2/2/2
f -2/2/2 -4/2/2 -1/2/2
v -1 15 -1
v -1 15 -5
v -1 17 -1
v -1 17 -5
f -4/1/2 -3/1/2 -2/1/2
f -2/1/2 -3/1/2 -1/1/2
v 1 10 4
v 1 10 1
v 1 13 4
v 1 13 1
f -4/2/2 -3/2/2 -2/2/2
f -2/2/2 -3/2/2 -1/2/2
v 2 15 -2
v 2 15 -6
v 2 17 -2
v 2 17 -6
f -4/1/2 -3/1/2 -2/1/2
f -2/1/2 -3/1/2 -1/1/2
v 3 15 -0
v 3 15 -2
v 3 17 -0
v 3 17 -2
f -4/1/2 -3/1/2 -2/1/2
f -2/1/2 -3/1/2 -1/1/2
v 4 13 4
v 4 13 1
v 4 15 4
v 4 15 1
v 4 15 -0
v 4 17 4
v 4 17 1
v 4 17 -0
v 4 18 4
v 4 18 1
f -10/2/2 -9/2/2 -8/2/2
f -8/2/2 -9/2/2 -7/2/2
f -8/1/2 -7/1/2 -5/1/2
f -7/1/2 -6/1/2 -5/1/2
f -5/1/2 -6/1/2 -4/1/2
f -4/1/2 -6/1/2 -3/1/2
f -5/2/2 -4/2/2 -2/2/2
f -2/2/2 -4/2/2 -1/2/2
v 5 0 6
v 5 0 -4
v 5 10 6
v 5 10 -4
f -4/1/2 -3/1/2 -2/1/2
f -2/1/2 -3/1/2 -1/1/2
v -5 0 6
v -5 10 6
v -2 2 6
v -2 3 6
v -2 4 6
v -2 7 6
v -1 4 6
v -1 7 6
v 1 4 6
v 1 7 6
v 2 2 6
v 2 3 6
v 2 4 6
v 2 7 6
v 5 0 6
v 5 10 6
f -14/1/3 -15/1/3 -16/1/3
f -13/1/3 -15/1/3 -14/1/3
f -12/1/3 -15/1/3 -13/1/3
f -11/1/3 -15/1/3 -12/1/3
f -10/1/3 -12/1/3 -13/1/3
f -10/2/3 -11/2/3 -12/2/3
f -9/1/3 -15/1/3 -11/1/3
f -9/2/3 -11/2/3 -10/2/3
f -8/1/3 -10/1/3 -13/1/3
f -8/1/3 -9/1/3 -10/1/3
f -7/1/3 -15/1/3 -9/1/3
f -7/1/3 -9/1/3 -8/1/3
f -6/1/3 -14/1/3 -16/1/3
f -6/2/3 -13/2/3 -14/2/3
f -5/1/3 -8/1/3 -13/1/3
f -5/2/3 -13/2/3 -6/2/3
f -4/2/3 -7/2/3 -8/2/3
f -4/1/3 -8/1/3 -5/1/3
f -3/1/3 -15/1/3 -7/1/3
f -3/2/3 -7/2/3 -4/2/3
f -2/1/3 -4/1/3 -5/1/3
f -2/1/3 -5/1/3 -6/1/3
f -2/1/3 -3/1/3 -4/1/3
f -2/1/3 -6/1/3 -16/1/3
f -1/1/3 -15/1/3 -3/1/3
f -1/1/3 -3/1/3 -2/1/3
v -4 13 4
v -4 15 4
v -4 17 4
v -4 18 4
v -2 15 4
v -2 17 4
v -2 18 4
v -1 10 4
v -1 13 4
v 1 10 4
v 1 13 4
v 2 15 4
v 2 17 4
v 2 18 4
v 4 13 4
v 4 15 4
v 4 17 4
v 4 18 4
f -14/2/3 -17/2/3 -18/2/3
f -14/1/3 -16/1/3 -17/1/3
f -13/2/3 -15/2/3 -16/2/3
f -13/1/3 -16/1/3 -14/1/3
f -12/2/3 -15/2/3 -13/2/3
f -10/2/3 -14/2/3 -18/2/3
f -9/2/3 -10/2/3 -11/2/3
f -8/2/3 -14/2/3 -10/2/3
f -8/2/3 -10/2/3 -9/2/3
f -7/2/3 -14/2/3 -8/2/3
f -4/2/3 -7/2/3 -8/2/3
f -3/1/3 -6/1/3 -7/1/3
f -3/2/3 -7/2/3 -4/2/3
f -2/2/3 -5/2/3 -6/2/3
f -2/1/3 -6/1/3 -3/1/3
f -1/2/3 -5/2/3 -2/2/3
v -2 15 -1
v -2 17 -1
v -1 15 -1
v -1 17 -1
v 1 15 -1
v 1 17 -1
v 2 15 -1
v 2 17 -1
f -6/1/3 -7/1/3 -8/1/3
f -5/1/3 -7/1/3 -6/1/3
f -2/1/3 -3/1/3 -4/1/3
f -1/1/3 -3/1/3 -2/1/3
v -1 15 -5
v -1 17 -5
v 1 15 -5
v 1 17 -5
f -2/1/3 -3/1/3 -4/1/3
f -1/1/3 -3/1/3 -2/1/3
v -4 13 1
v -4 15 1
v -4 17 1
v -4 18 1
v -2 15 1
v -2 17 1
v -2 18 1
v -1 10 1
v -1 13 1
v 1 10 1
v 1 13 1
v 2 15 1
v 2 17 1
v 2 18 1
v 4 13 1
v 4 15 1
v 4 17 1
v 4 18 1
f -18/2/4 -17/2/4 -14/2/4
f -16/2/4 -15/2/4 -13/2/4
f -13/2/4 -15/2/4 -12/2/4
f -18/2/4 -14/2/4 -10/2/4
f -11/2/4 -10/2/4 -9/2/4
f -10/2/4 -14/2/4 -8/2/4
f -9/2/4 -10/2/4 -8/2/4
f -8/2/4 -14/2/4 -7/2/4
f -8/2/4 -7/2/4 -4/2/4
f -4/2/4 -7/2/4 -3/2/4
f -6/2/4 -5/2/4 -2/2/4
f -2/2/4 -5/2/4 -1/2/4
v -4 15 -0
v -4 17 -0
v -3 15 -0
v -3 17 -0
v 3 15 -0
v 3 17 -0
v 4 15 -0
v 4 17 -0
f -8/1/4 -7/1/4 -6/1/4
f -6/1/4 -7/1/4 -5/1/4
f -4/1/4 -3/1/4 -2/1/4
f -2/1/4 -3/1/4 -1/1/4
v -3 15 -2
v -3 17 -2
v -2 15 -2
v -2 17 -2
v 2 15 -2
v 2 17 -2
v 3 15 -2
v 3 17 -2
f -8/1/4 -7/1/4 -6/1/4
f -6/1/4 -7/1/4 -5/1/4
f -4/1/4 -3/1/4 -2/1/4
f -2/1/4 -3/1/4 -1/1/4
v -5 0 -4
v -5 10 -4
v 5 0 -4
v 5 10 -4
f -4/1/4 -3/1/4 -2/1/4
f -2/1/4 -3/1/4 -1/1/4
v -2 15 -6
v -2 17 -6
v 2 15 -6
v 2 17 -6
f -4/1/4 -3/1/4 -2/1/4
f -2/1/4 -3/1/4 -1/1/4
v -5 0 6
v 5 0 6
v -5 0 -4
v 5 0 -4
f -2/1/5 -3/1/5 -4/1/5
f -1/1/5 -3/1/5 -2/1/5
v -4 13 4
v -1 13 4
v 1 13 4
v 4 13 4
v -4 13 1
v -1 13 1
v 1 13 1
v 4 13 1
f -4/2/5 -7/2/5 -8/2/5
f -3/2/5 -7/2/5 -4/2/5
f -2/2/5 -5/2/5 -6/2/5
f -1/2/5 -5/2/5 -2/2/5
v -4 15 1
v -2 15 1
v 2 15 1
v 4 15 1
v -4 15 -0
v -3 15 -0
v 3 15 -0
v 4 15 -0
v -2 15 -1
v -1 15 -1
v 1 15 -1
v 2 15 -1
v -3 15 -2
v -2 15 -2
v 2 15 -2
v 3 15 -2
v -1 15 -5
v 1 15 -5
v -2 15 -6
v 2 15 -6
f -16/1/5 -19/1/5 -20/1/5
f -15/1/5 -19/1/5 -16/1/5
f -14/1/5 -17/1/5 -18/1/5
f -13/1/5 -17/1/5 -14/1/5
f -12/1/5 -19/1/5 -15/1/5
f -9/1/5 -14/1/5 -18/1/5
f -8/1/5 -11/1/5 -12/1/5
f -8/1/5 -12/1/5 -15/1/5
f -7/1/5 -11/1/5 -8/1/5
f -6/1/5 -9/1/5 -10/1/5
f -6/1/5 -14/1/5 -9/1/5
f -5/1/5 -14/1/5 -6/1/5
f -4/1/5 -11/1/5 -7/1/5
f -3/1/5 -6/1/5 -10/1/5
f -2/1/5 -4/1/5 -7/1/5
f -2/1/5 -3/1/5 -4/1/5
f -1/1/5 -6/1/5 -3/1/5
f -1/1/5 -3/1/5 -2/1/5
v -5 10 6
v 5 10 6
v -1 10 4
v 1 10 4
v -1 10 1
v 1 10 1
v -5 10 -4
v 5 10 -4
f -8/1/6 -7/1/6 -6/1/6
f -6/1/6 -7/1/6 -5/1/6
f -8/1/6 -6/1/6 -4/1/6
f -5/1/6 -7/1/6 -3/1/6
f -8/1/6 -4/1/6 -2/1/6
f -4/1/6 -3/1/6 -2/1/6
f -3/1/6 -7/1/6 -1/1/6
f -2/1/6 -3/1/6 -1/1/6
v -2 15 4
v 2 15 4
v -2 15 1
v 2 15 1
f -4/2/6 -3/2/6 -2/2/6
f -2/2/6 -3/2/6 -1/2/6
v -4 17 1
v -2 17 1
v 2 17 1
v 4 17 1
v -4 17 -0
v -3 17 -0
v 3 17 -0
v 4 17 -0
v -2 17 -1
v -1 17 -1
v 1 17 -1
v 2 17 -1
v -3 17 -2
v -2 17 -2
v 2 17 -2
v 3 17 -2
v -1 17 -5
v 1 17 -5
v -2 17 -6
v 2 17 -6
f -20/1/6 -19/1/6 -16/1/6
f -16/1/6 -19/1/6 -15/1/6
f -18/1/6 -17/1/6 -14/1/6
f -14/1/6 -17/1/6 -13/1/6
f -15/1/6 -19/1/6 -12/1/6
f -18/1/6 -14/1/6 -9/1/6
f -12/1/6 -11/1/6 -8/1/6
f -15/1/6 -12/1/6 -8/1/6
f -8/1/6 -11/1/6 -7/1/6
f -10/1/6 -9/1/6 -6/1/6
f -9/1/6 -14/1/6 -6/1/6
f -6/1/6 -14/1/6 -5/1/6
f -7/1/6 -11/1/6 -4/1/6
f -10/1/6 -6/1/6 -3/1/6
f -7/1/6 -4/1/6 -2/1/6
f -4/1/6 -3/1/6 -2/1/6
f -3/1/6 -6/1/6 -1/1/6
f -2/1/6 -3/1/6 -1/1/6
v -4 18 4
v -2 18 4
v 2 18 4
v 4 18 4
v -4 18 1
v -2 18 1
v 2 18 1
v 4 18 1
f -8/2/6 -7/2/6 -4/2/6
f -4/2/6 -7/2/6 -3/2/6
f -6/2/6 -5/2/6 -2/2/6
f -2/2/6 -5/2/6 -1/2/6
