# MagicaVoxel @ ephtracy

# material
mtllib taco7.mtl
usemtl palette

# normals
vn -1 0 0
vn 1 0 0
vn 0 0 1
vn 0 0 -1
vn 0 -1 0
vn 0 1 0

# texcoords
vt 0.974609 0.5
vt 0.978516 0.5

# verts and faces
v -5 0 4
v -5 0 -6
v -5 10 4
v -5 10 -6
f -2/1/1 -3/1/1 -4/1/1
f -1/1/1 -3/1/1 -2/1/1
v -4 10 -0
v -4 10 -5
v -4 11 1
v -4 11 -0
v -4 11 -4
v -4 11 -5
v -4 12 2
v -4 12 1
v -4 12 -3
v -4 12 -4
v -4 13 3
v -4 13 2
v -4 13 -2
v -4 13 -3
v -4 14 4
v -4 14 3
v -4 14 -1
v -4 14 -2
v -4 15 5
v -4 15 4
v -4 15 -0
v -4 15 -1
v -4 16 6
v -4 16 5
v -4 16 1
v -4 16 -0
v -4 17 2
v -4 17 1
v -4 18 3
v -4 18 2
v -4 19 4
v -4 19 3
v -4 20 6
v -4 20 4
f -31/2/1 -33/2/1 -34/2/1
f -30/2/1 -33/2/1 -31/2/1
f -29/2/1 -33/2/1 -30/2/1
f -27/2/1 -31/2/1 -32/2/1
f -27/2/1 -30/2/1 -31/2/1
f -26/2/1 -30/2/1 -27/2/1
f -25/2/1 -30/2/1 -26/2/1
f -23/2/1 -27/2/1 -28/2/1
f -23/2/1 -26/2/1 -27/2/1
f -22/2/1 -26/2/1 -23/2/1
f -21/2/1 -26/2/1 -22/2/1
f -19/2/1 -23/2/1 -24/2/1
f -19/2/1 -22/2/1 -23/2/1
f -18/2/1 -22/2/1 -19/2/1
f -17/2/1 -22/2/1 -18/2/1
f -15/2/1 -19/2/1 -20/2/1
f -15/2/1 -18/2/1 -19/2/1
f -14/2/1 -18/2/1 -15/2/1
f -13/2/1 -18/2/1 -14/2/1
f -11/2/1 -15/2/1 -16/2/1
f -11/2/1 -14/2/1 -15/2/1
f -10/2/1 -14/2/1 -11/2/1
f -9/2/1 -14/2/1 -10/2/1
f -8/2/1 -11/2/1 -12/2/1
f -8/2/1 -10/2/1 -11/2/1
f -7/2/1 -10/2/1 -8/2/1
f -6/2/1 -8/2/1 -12/2/1
f -5/2/1 -8/2/1 -6/2/1
f -4/2/1 -6/2/1 -12/2/1
f -3/2/1 -6/2/1 -4/2/1
f -2/2/1 -4/2/1 -12/2/1
f -1/2/1 -4/2/1 -2/2/1
v 1 10 -0
v 1 10 -5
v 1 11 1
v 1 11 -0
v 1 11 -4
v 1 11 -5
v 1 12 2
v 1 12 1
v 1 12 -3
v 1 12 -4
v 1 13 3
v 1 13 2
v 1 13 -2
v 1 13 -3
v 1 14 4
v 1 14 3
v 1 14 -1
v 1 14 -2
v 1 15 5
v 1 15 4
v 1 15 -0
v 1 15 -1
v 1 16 6
v 1 16 5
v 1 16 1
v 1 16 -0
v 1 17 2
v 1 17 1
v 1 18 3
v 1 18 2
v 1 19 4
v 1 19 3
v 1 20 6
v 1 20 4
f -31/2/1 -33/2/1 -34/2/1
f -30/2/1 -33/2/1 -31/2/1
f -29/2/1 -33/2/1 -30/2/1
f -27/2/1 -31/2/1 -32/2/1
f -27/2/1 -30/2/1 -31/2/1
f -26/2/1 -30/2/1 -27/2/1
f -25/2/1 -30/2/1 -26/2/1
f -23/2/1 -27/2/1 -28/2/1
f -23/2/1 -26/2/1 -27/2/1
f -22/2/1 -26/2/1 -23/2/1
f -21/2/1 -26/2/1 -22/2/1
f -19/2/1 -23/2/1 -24/2/1
f -19/2/1 -22/2/1 -23/2/1
f -18/2/1 -22/2/1 -19/2/1
f -17/2/1 -22/2/1 -18/2/1
f -15/2/1 -19/2/1 -20/2/1
f -15/2/1 -18/2/1 -19/2/1
f -14/2/1 -18/2/1 -15/2/1
f -13/2/1 -18/2/1 -14/2/1
f -11/2/1 -15/2/1 -16/2/1
f -11/2/1 -14/2/1 -15/2/1
f -10/2/1 -14/2/1 -11/2/1
f -9/2/1 -14/2/1 -10/2/1
f -8/2/1 -11/2/1 -12/2/1
f -8/2/1 -10/2/1 -11/2/1
f -7/2/1 -10/2/1 -8/2/1
f -6/2/1 -8/2/1 -12/2/1
f -5/2/1 -8/2/1 -6/2/1
f -4/2/1 -6/2/1 -12/2/1
f -3/2/1 -6/2/1 -4/2/1
f -2/2/1 -4/2/1 -12/2/1
f -1/2/1 -4/2/1 -2/2/1
v -1 10 -0
v -1 10 -5
v -1 11 1
v -1 11 -0
v -1 11 -4
v -1 11 -5
v -1 12 2
v -1 12 1
v -1 12 -3
v -1 12 -4
v -1 13 3
v -1 13 2
v -1 13 -2
v -1 13 -3
v -1 14 4
v -1 14 3
v -1 14 -1
v -1 14 -2
v -1 15 5
v -1 15 4
v -1 15 -0
v -1 15 -1
v -1 16 6
v -1 16 5
v -1 16 1
v -1 16 -0
v -1 17 2
v -1 17 1
v -1 18 3
v -1 18 2
v -1 19 4
v -1 19 3
v -1 20 6
v -1 20 4
f -34/2/2 -33/2/2 -31/2/2
f -31/2/2 -33/2/2 -30/2/2
f -30/2/2 -33/2/2 -29/2/2
f -32/2/2 -31/2/2 -27/2/2
f -31/2/2 -30/2/2 -27/2/2
f -27/2/2 -30/2/2 -26/2/2
f -26/2/2 -30/2/2 -25/2/2
f -28/2/2 -27/2/2 -23/2/2
f -27/2/2 -26/2/2 -23/2/2
f -23/2/2 -26/2/2 -22/2/2
f -22/2/2 -26/2/2 -21/2/2
f -24/2/2 -23/2/2 -19/2/2
f -23/2/2 -22/2/2 -19/2/2
f -19/2/2 -22/2/2 -18/2/2
f -18/2/2 -22/2/2 -17/2/2
f -20/2/2 -19/2/2 -15/2/2
f -19/2/2 -18/2/2 -15/2/2
f -15/2/2 -18/2/2 -14/2/2
f -14/2/2 -18/2/2 -13/2/2
f -16/2/2 -15/2/2 -11/2/2
f -15/2/2 -14/2/2 -11/2/2
f -11/2/2 -14/2/2 -10/2/2
f -10/2/2 -14/2/2 -9/2/2
f -12/2/2 -11/2/2 -8/2/2
f -11/2/2 -10/2/2 -8/2/2
f -8/2/2 -10/2/2 -7/2/2
f -12/2/2 -8/2/2 -6/2/2
f -6/2/2 -8/2/2 -5/2/2
f -12/2/2 -6/2/2 -4/2/2
f -4/2/2 -6/2/2 -3/2/2
f -12/2/2 -4/2/2 -2/2/2
f -2/2/2 -4/2/2 -1/2/2
v 4 10 -0
v 4 10 -5
v 4 11 1
v 4 11 -0
v 4 11 -4
v 4 11 -5
v 4 12 2
v 4 12 1
v 4 12 -3
v 4 12 -4
v 4 13 3
v 4 13 2
v 4 13 -2
v 4 13 -3
v 4 14 4
v 4 14 3
v 4 14 -1
v 4 14 -2
v 4 15 5
v 4 15 4
v 4 15 -0
v 4 15 -1
v 4 16 6
v 4 16 5
v 4 16 1
v 4 16 -0
v 4 17 2
v 4 17 1
v 4 18 3
v 4 18 2
v 4 19 4
v 4 19 3
v 4 20 6
v 4 20 4
f -34/2/2 -33/2/2 -31/2/2
f -31/2/2 -33/2/2 -30/2/2
f -30/2/2 -33/2/2 -29/2/2
f -32/2/2 -31/2/2 -27/2/2
f -31/2/2 -30/2/2 -27/2/2
f -27/2/2 -30/2/2 -26/2/2
f -26/2/2 -30/2/2 -25/2/2
f -28/2/2 -27/2/2 -23/2/2
f -27/2/2 -26/2/2 -23/2/2
f -23/2/2 -26/2/2 -22/2/2
f -22/2/2 -26/2/2 -21/2/2
f -24/2/2 -23/2/2 -19/2/2
f -23/2/2 -22/2/2 -19/2/2
f -19/2/2 -22/2/2 -18/2/2
f -18/2/2 -22/2/2 -17/2/2
f -20/2/2 -19/2/2 -15/2/2
f -19/2/2 -18/2/2 -15/2/2
f -15/2/2 -18/2/2 -14/2/2
f -14/2/2 -18/2/2 -13/2/2
f -16/2/2 -15/2/2 -11/2/2
f -15/2/2 -14/2/2 -11/2/2
f -11/2/2 -14/2/2 -10/2/2
f -10/2/2 -14/2/2 -9/2/2
f -12/2/2 -11/2/2 -8/2/2
f -11/2/2 -10/2/2 -8/2/2
f -8/2/2 -10/2/2 -7/2/2
f -12/2/2 -8/2/2 -6/2/2
f -6/2/2 -8/2/2 -5/2/2
f -12/2/2 -6/2/2 -4/2/2
f -4/2/2 -6/2/2 -3/2/2
f -12/2/2 -4/2/2 -2/2/2
f -2/2/2 -4/2/2 -1/2/2
v 5 0 4
v 5 0 -6
v 5 10 4
v 5 10 -6
f -4/1/2 -3/1/2 -2/1/2
f -2/1/2 -3/1/2 -1/1/2
v -4 16 6
v -4 20 6
v -3 17 6
v -3 19 6
v -2 17 6
v -2 19 6
v -1 16 6
v -1 20 6
v 1 16 6
v 1 20 6
v 2 17 6
v 2 19 6
v 3 17 6
v 3 19 6
v 4 16 6
v 4 20 6
f -14/2/3 -15/2/3 -16/2/3
f -13/2/3 -15/2/3 -14/2/3
f -12/2/3 -14/2/3 -16/2/3
f -12/1/3 -13/1/3 -14/1/3
f -11/2/3 -15/2/3 -13/2/3
f -11/1/3 -13/1/3 -12/1/3
f -10/2/3 -12/2/3 -16/2/3
f -10/2/3 -11/2/3 -12/2/3
f -9/2/3 -15/2/3 -11/2/3
f -9/2/3 -11/2/3 -10/2/3
f -6/2/3 -7/2/3 -8/2/3
f -5/2/3 -7/2/3 -6/2/3
f -4/2/3 -6/2/3 -8/2/3
f -4/1/3 -5/1/3 -6/1/3
f -3/2/3 -7/2/3 -5/2/3
f -3/1/3 -5/1/3 -4/1/3
f -2/2/3 -4/2/3 -8/2/3
f -2/2/3 -3/2/3 -4/2/3
f -1/2/3 -7/2/3 -3/2/3
f -1/2/3 -3/2/3 -2/2/3
v -4 15 5
v -4 16 5
v -1 15 5
v -1 16 5
v 1 15 5
v 1 16 5
v 4 15 5
v 4 16 5
f -6/2/3 -7/2/3 -8/2/3
f -5/2/3 -7/2/3 -6/2/3
f -2/2/3 -3/2/3 -4/2/3
f -1/2/3 -3/2/3 -2/2/3
v -5 0 4
v -5 10 4
v -4 14 4
v -4 15 4
v -2 2 4
v -2 3 4
v -2 4 4
v -2 7 4
v -1 4 4
v -1 7 4
v -1 14 4
v -1 15 4
v 1 4 4
v 1 7 4
v 1 14 4
v 1 15 4
v 2 2 4
v 2 3 4
v 2 4 4
v 2 7 4
v 4 14 4
v 4 15 4
v 5 0 4
v 5 10 4
f -20/1/3 -23/1/3 -24/1/3
f -19/1/3 -23/1/3 -20/1/3
f -18/1/3 -23/1/3 -19/1/3
f -17/1/3 -23/1/3 -18/1/3
f -16/1/3 -18/1/3 -19/1/3
f -16/2/3 -17/2/3 -18/2/3
f -15/1/3 -23/1/3 -17/1/3
f -15/2/3 -17/2/3 -16/2/3
f -14/2/3 -21/2/3 -22/2/3
f -13/2/3 -21/2/3 -14/2/3
f -12/1/3 -16/1/3 -19/1/3
f -12/1/3 -15/1/3 -16/1/3
f -11/1/3 -23/1/3 -15/1/3
f -11/1/3 -15/1/3 -12/1/3
f -8/1/3 -20/1/3 -24/1/3
f -8/2/3 -19/2/3 -20/2/3
f -7/1/3 -12/1/3 -19/1/3
f -7/2/3 -19/2/3 -8/2/3
f -6/2/3 -11/2/3 -12/2/3
f -6/1/3 -12/1/3 -7/1/3
f -5/1/3 -23/1/3 -11/1/3
f -5/2/3 -11/2/3 -6/2/3
f -4/2/3 -9/2/3 -10/2/3
f -3/2/3 -9/2/3 -4/2/3
f -2/1/3 -8/1/3 -24/1/3
f -2/1/3 -6/1/3 -7/1/3
f -2/1/3 -7/1/3 -8/1/3
f -2/1/3 -5/1/3 -6/1/3
f -1/1/3 -23/1/3 -5/1/3
f -1/1/3 -5/1/3 -2/1/3
v -4 13 3
v -4 14 3
v -1 13 3
v -1 14 3
v 1 13 3
v 1 14 3
v 4 13 3
v 4 14 3
f -6/2/3 -7/2/3 -8/2/3
f -5/2/3 -7/2/3 -6/2/3
f -2/2/3 -3/2/3 -4/2/3
f -1/2/3 -3/2/3 -2/2/3
v -4 12 2
v -4 13 2
v -1 12 2
v -1 13 2
v 1 12 2
v 1 13 2
v 4 12 2
v 4 13 2
f -6/2/3 -7/2/3 -8/2/3
f -5/2/3 -7/2/3 -6/2/3
f -2/2/3 -3/2/3 -4/2/3
f -1/2/3 -3/2/3 -2/2/3
v -4 11 1
v -4 12 1
v -1 11 1
v -1 12 1
v 1 11 1
v 1 12 1
v 4 11 1
v 4 12 1
f -6/2/3 -7/2/3 -8/2/3
f -5/2/3 -7/2/3 -6/2/3
f -2/2/3 -3/2/3 -4/2/3
f -1/2/3 -3/2/3 -2/2/3
v -4 10 -0
v -4 11 -0
v -1 10 -0
v -1 11 -0
v 1 10 -0
v 1 11 -0
v 4 10 -0
v 4 11 -0
f -6/2/3 -7/2/3 -8/2/3
f -5/2/3 -7/2/3 -6/2/3
f -2/2/3 -3/2/3 -4/2/3
f -1/2/3 -3/2/3 -2/2/3
v -4 19 4
v -4 20 4
v -1 19 4
v -1 20 4
v 1 19 4
v 1 20 4
v 4 19 4
v 4 20 4
f -8/2/4 -7/2/4 -6/2/4
f -6/2/4 -7/2/4 -5/2/4
f -4/2/4 -3/2/4 -2/2/4
f -2/2/4 -3/2/4 -1/2/4
v -4 18 3
v -4 19 3
v -1 18 3
v -1 19 3
v 1 18 3
v 1 19 3
v 4 18 3
v 4 19 3
f -8/2/4 -7/2/4 -6/2/4
f -6/2/4 -7/2/4 -5/2/4
f -4/2/4 -3/2/4 -2/2/4
f -2/2/4 -3/2/4 -1/2/4
v -4 17 2
v -4 18 2
v -1 17 2
v -1 18 2
v 1 17 2
v 1 18 2
v 4 17 2
v 4 18 2
f -8/2/4 -7/2/4 -6/2/4
f -6/2/4 -7/2/4 -5/2/4
f -4/2/4 -3/2/4 -2/2/4
f -2/2/4 -3/2/4 -1/2/4
v -4 16 1
v -4 17 1
v -1 16 1
v -1 17 1
v 1 16 1
v 1 17 1
v 4 16 1
v 4 17 1
f -8/2/4 -7/2/4 -6/2/4
f -6/2/4 -7/2/4 -5/2/4
f -4/2/4 -3/2/4 -2/2/4
f -2/2/4 -3/2/4 -1/2/4
v -4 15 -0
v -4 16 -0
v -1 15 -0
v -1 16 -0
v 1 15 -0
v 1 16 -0
v 4 15 -0
v 4 16 -0
f -8/2/4 -7/2/4 -6/2/4
f -6/2/4 -7/2/4 -5/2/4
f -4/2/4 -3/2/4 -2/2/4
f -2/2/4 -3/2/4 -1/2/4
v -4 14 -1
v -4 15 -1
v -1 14 -1
v -1 15 -1
v 1 14 -1
v 1 15 -1
v 4 14 -1
v 4 15 -1
f -8/2/4 -7/2/4 -6/2/4
f -6/2/4 -7/2/4 -5/2/4
f -4/2/4 -3/2/4 -2/2/4
f -2/2/4 -3/2/4 -1/2/4
v -4 13 -2
v -4 14 -2
v -1 13 -2
v -1 14 -2
v 1 13 -2
v 1 14 -2
v 4 13 -2
v 4 14 -2
f -8/2/4 -7/2/4 -6/2/4
f -6/2/4 -7/2/4 -5/2/4
f -4/2/4 -3/2/4 -2/2/4
f -2/2/4 -3/2/4 -1/2/4
v -4 12 -3
v -4 13 -3
v -1 12 -3
v -1 13 -3
v 1 12 -3
v 1 13 -3
v 4 12 -3
v 4 13 -3
f -8/2/4 -7/2/4 -6/2/4
f -6/2/4 -7/2/4 -5/2/4
f -4/2/4 -3/2/4 -2/2/4
f -2/2/4 -3/2/4 -1/2/4
v -4 11 -4
v -4 12 -4
v -1 11 -4
v -1 12 -4
v 1 11 -4
v 1 12 -4
v 4 11 -4
v 4 12 -4
f -8/2/4 -7/2/4 -6/2/4
f -6/2/4 -7/2/4 -5/2/4
f -4/2/4 -3/2/4 -2/2/4
f -2/2/4 -3/2/4 -1/2/4
v -4 10 -5
v -4 11 -5
v -1 10 -5
v -1 11 -5
v 1 10 -5
v 1 11 -5
v 4 10 -5
v 4 11 -5
f -8/2/4 -7/2/4 -6/2/4
f -6/2/4 -7/2/4 -5/2/4
f -4/2/4 -3/2/4 -2/2/4
f -2/2/4 -3/2/4 -1/2/4
v -5 0 -6
v -5 10 -6
v 5 0 -6
v 5 10 -6
f -4/1/4 -3/1/4 -2/1/4
f -2/1/4 -3/1/4 -1/1/4
v -5 0 4
v 5 0 4
v -5 0 -6
v 5 0 -6
f -2/1/5 -3/1/5 -4/1/5
f -1/1/5 -3/1/5 -2/1/5
v -4 11 1
v -1 11 1
v 1 11 1
v 4 11 1
v -4 11 -0
v -1 11 -0
v 1 11 -0
v 4 11 -0
f -4/2/5 -7/2/5 -8/2/5
f -3/2/5 -7/2/5 -4/2/5
f -2/2/5 -5/2/5 -6/2/5
f -1/2/5 -5/2/5 -2/2/5
v -4 12 2
v -1 12 2
v 1 12 2
v 4 12 2
v -4 12 1
v -1 12 1
v 1 12 1
v 4 12 1
f -4/2/5 -7/2/5 -8/2/5
f -3/2/5 -7/2/5 -4/2/5
f -2/2/5 -5/2/5 -6/2/5
f -1/2/5 -5/2/5 -2/2/5
v -4 13 3
v -1 13 3
v 1 13 3
v 4 13 3
v -4 13 2
v -1 13 2
v 1 13 2
v 4 13 2
f -4/2/5 -7/2/5 -8/2/5
f -3/2/5 -7/2/5 -4/2/5
f -2/2/5 -5/2/5 -6/2/5
f -1/2/5 -5/2/5 -2/2/5
v -4 14 4
v -1 14 4
v 1 14 4
v 4 14 4
v -4 14 3
v -1 14 3
v 1 14 3
v 4 14 3
f -4/2/5 -7/2/5 -8/2/5
f -3/2/5 -7/2/5 -4/2/5
f -2/2/5 -5/2/5 -6/2/5
f -1/2/5 -5/2/5 -2/2/5
v -4 15 5
v -1 15 5
v 1 15 5
v 4 15 5
v -4 15 4
v -1 15 4
v 1 15 4
v 4 15 4
f -4/2/5 -7/2/5 -8/2/5
f -3/2/5 -7/2/5 -4/2/5
f -2/2/5 -5/2/5 -6/2/5
f -1/2/5 -5/2/5 -2/2/5
v -4 16 6
v -1 16 6
v 1 16 6
v 4 16 6
v -4 16 5
v -1 16 5
v 1 16 5
v 4 16 5
f -4/2/5 -7/2/5 -8/2/5
f -3/2/5 -7/2/5 -4/2/5
f -2/2/5 -5/2/5 -6/2/5
f -1/2/5 -5/2/5 -2/2/5
v -5 10 4
v 5 10 4
v -4 10 -0
v -1 10 -0
v 1 10 -0
v 4 10 -0
v -4 10 -5
v -1 10 -5
v 1 10 -5
v 4 10 -5
v -5 10 -6
v 5 10 -6
f -12/1/6 -11/1/6 -10/1/6
f -10/1/6 -11/1/6 -9/1/6
f -9/1/6 -11/1/6 -8/1/6
f -8/1/6 -11/1/6 -7/1/6
f -12/1/6 -10/1/6 -6/1/6
f -9/1/6 -8/1/6 -5/1/6
f -5/1/6 -8/1/6 -4/1/6
f -7/1/6 -11/1/6 -3/1/6
f -5/1/6 -4/1/6 -2/1/6
f -4/1/6 -3/1/6 -2/1/6
f -12/1/6 -6/1/6 -2/1/6
f -6/1/6 -5/1/6 -2/1/6
f -3/1/6 -11/1/6 -1/1/6
f -2/1/6 -3/1/6 -1/1/6
v -4 11 -4
v -1 11 -4
v 1 11 -4
v 4 11 -4
v -4 11 -5
v -1 11 -5
v 1 11 -5
v 4 11 -5
f -8/2/6 -7/2/6 -4/2/6
f -4/2/6 -7/2/6 -3/2/6
f -6/2/6 -5/2/6 -2/2/6
f -2/2/6 -5/2/6 -1/2/6
v -4 12 -3
v -1 12 -3
v 1 12 -3
v 4 12 -3
v -4 12 -4
v -1 12 -4
v 1 12 -4
v 4 12 -4
f -8/2/6 -7/2/6 -4/2/6
f -4/2/6 -7/2/6 -3/2/6
f -6/2/6 -5/2/6 -2/2/6
f -2/2/6 -5/2/6 -1/2/6
v -4 13 -2
v -1 13 -2
v 1 13 -2
v 4 13 -2
v -4 13 -3
v -1 13 -3
v 1 13 -3
v 4 13 -3
f -8/2/6 -7/2/6 -4/2/6
f -4/2/6 -7/2/6 -3/2/6
f -6/2/6 -5/2/6 -2/2/6
f -2/2/6 -5/2/6 -1/2/6
v -4 14 -1
v -1 14 -1
v 1 14 -1
v 4 14 -1
v -4 14 -2
v -1 14 -2
v 1 14 -2
v 4 14 -2
f -8/2/6 -7/2/6 -4/2/6
f -4/2/6 -7/2/6 -3/2/6
f -6/2/6 -5/2/6 -2/2/6
f -2/2/6 -5/2/6 -1/2/6
v -4 15 -0
v -1 15 -0
v 1 15 -0
v 4 15 -0
v -4 15 -1
v -1 15 -1
v 1 15 -1
v 4 15 -1
f -8/2/6 -7/2/6 -4/2/6
f -4/2/6 -7/2/6 -3/2/6
f -6/2/6 -5/2/6 -2/2/6
f -2/2/6 -5/2/6 -1/2/6
v -4 16 1
v -1 16 1
v 1 16 1
v 4 16 1
v -4 16 -0
v -1 16 -0
v 1 16 -0
v 4 16 -0
f -8/2/6 -7/2/6 -4/2/6
f -4/2/6 -7/2/6 -3/2/6
f -6/2/6 -5/2/6 -2/2/6
f -2/2/6 -5/2/6 -1/2/6
v -4 17 2
v -1 17 2
v 1 17 2
v 4 17 2
v -4 17 1
v -1 17 1
v 1 17 1
v 4 17 1
f -8/2/6 -7/2/6 -4/2/6
f -4/2/6 -7/2/6 -3/2/6
f -6/2/6 -5/2/6 -2/2/6
f -2/2/6 -5/2/6 -1/2/6
v -4 18 3
v -1 18 3
v 1 18 3
v 4 18 3
v -4 18 2
v -1 18 2
v 1 18 2
v 4 18 2
f -8/2/6 -7/2/6 -4/2/6
f -4/2/6 -7/2/6 -3/2/6
f -6/2/6 -5/2/6 -2/2/6
f -2/2/6 -5/2/6 -1/2/6
v -4 19 4
v -1 19 4
v 1 19 4
v 4 19 4
v -4 19 3
v -1 19 3
v 1 19 3
v 4 19 3
f -8/2/6 -7/2/6 -4/2/6
f -4/2/6 -7/2/6 -3/2/6
f -6/2/6 -5/2/6 -2/2/6
f -2/2/6 -5/2/6 -1/2/6
v -4 20 6
v -1 20 6
v 1 20 6
v 4 20 6
v -4 20 4
v -1 20 4
v 1 20 4
v 4 20 4
f -8/2/6 -7/2/6 -4/2/6
f -4/2/6 -7/2/6 -3/2/6
f -6/2/6 -5/2/6 -2/2/6
f -2/2/6 -5/2/6 -1/2/6
