# MagicaVoxel @ ephtracy

# material
mtllib taco5.mtl
usemtl palette

# normals
vn -1 0 0
vn 1 0 0
vn 0 0 1
vn 0 0 -1
vn 0 -1 0
vn 0 1 0

# texcoords
vt 0.974609 0.5
vt 0.978516 0.5

# verts and faces
v -5 0 3
v -5 0 -7
v -5 10 3
v -5 10 -7
f -2/1/1 -3/1/1 -4/1/1
f -1/1/1 -3/1/1 -2/1/1
v -2 9 -8
v -2 9 -10
v -2 10 1
v -2 10 -5
v -2 11 7
v -2 11 1
v -2 11 -5
v -2 11 -7
v -2 12 -7
v -2 12 -8
v -2 16 -8
v -2 16 -10
v -2 17 5
v -2 17 -8
v -2 18 7
v -2 18 5
f -11/2/1 -13/2/1 -14/2/1
f -10/2/1 -13/2/1 -11/2/1
f -8/2/1 -11/2/1 -12/2/1
f -8/2/1 -9/2/1 -10/2/1
f -8/2/1 -10/2/1 -11/2/1
f -7/1/1 -15/1/1 -16/1/1
f -6/1/1 -15/1/1 -7/1/1
f -6/2/1 -7/2/1 -8/2/1
f -5/1/1 -15/1/1 -6/1/1
f -4/2/1 -8/2/1 -12/2/1
f -4/2/1 -6/2/1 -8/2/1
f -3/2/1 -6/2/1 -4/2/1
f -2/2/1 -4/2/1 -12/2/1
f -1/2/1 -4/2/1 -2/2/1
v -1 13 10
v -1 13 7
v -1 15 10
v -1 15 7
v -1 17 3
v -1 17 1
v -1 18 3
v -1 18 1
f -6/2/1 -7/2/1 -8/2/1
f -5/2/1 -7/2/1 -6/2/1
f -2/2/1 -3/2/1 -4/2/1
f -1/2/1 -3/2/1 -2/2/1
v 1 9 -8
v 1 9 -10
v 1 12 -8
v 1 16 -8
v 1 16 -10
v 1 17 7
v 1 17 5
v 1 18 7
v 1 18 5
f -7/1/1 -8/1/1 -9/1/1
f -6/1/1 -8/1/1 -7/1/1
f -5/1/1 -8/1/1 -6/1/1
f -2/2/1 -3/2/1 -4/2/1
f -1/2/1 -3/2/1 -2/2/1
v -1 9 -8
v -1 9 -10
v -1 12 -8
v -1 16 -8
v -1 16 -10
v -1 17 7
v -1 17 5
v -1 18 7
v -1 18 5
f -9/1/2 -8/1/2 -7/1/2
f -7/1/2 -8/1/2 -6/1/2
f -6/1/2 -8/1/2 -5/1/2
f -4/2/2 -3/2/2 -2/2/2
f -2/2/2 -3/2/2 -1/2/2
v 1 13 10
v 1 13 7
v 1 15 10
v 1 15 7
v 1 17 3
v 1 17 1
v 1 18 3
v 1 18 1
f -8/2/2 -7/2/2 -6/2/2
f -6/2/2 -7/2/2 -5/2/2
f -4/2/2 -3/2/2 -2/2/2
f -2/2/2 -3/2/2 -1/2/2
v 2 9 -8
v 2 9 -10
v 2 10 1
v 2 10 -5
v 2 11 7
v 2 11 1
v 2 11 -5
v 2 11 -7
v 2 12 -7
v 2 12 -8
v 2 16 -8
v 2 16 -10
v 2 17 5
v 2 17 -8
v 2 18 7
v 2 18 5
f -14/2/2 -13/2/2 -11/2/2
f -11/2/2 -13/2/2 -10/2/2
f -12/2/2 -11/2/2 -8/2/2
f -10/2/2 -9/2/2 -8/2/2
f -11/2/2 -10/2/2 -8/2/2
f -16/1/2 -15/1/2 -7/1/2
f -7/1/2 -15/1/2 -6/1/2
f -8/2/2 -7/2/2 -6/2/2
f -6/1/2 -15/1/2 -5/1/2
f -12/2/2 -8/2/2 -4/2/2
f -8/2/2 -6/2/2 -4/2/2
f -4/2/2 -6/2/2 -3/2/2
f -12/2/2 -4/2/2 -2/2/2
f -2/2/2 -4/2/2 -1/2/2
v 5 0 3
v 5 0 -7
v 5 10 3
v 5 10 -7
f -4/1/2 -3/1/2 -2/1/2
f -2/1/2 -3/1/2 -1/1/2
v -1 13 10
v -1 15 10
v 1 13 10
v 1 15 10
f -2/2/3 -3/2/3 -4/2/3
f -1/2/3 -3/2/3 -2/2/3
v -2 11 7
v -2 18 7
v -1 13 7
v -1 15 7
v -1 17 7
v -1 18 7
v 1 13 7
v 1 15 7
v 1 17 7
v 1 18 7
v 2 11 7
v 2 18 7
f -10/2/3 -11/2/3 -12/2/3
f -9/2/3 -11/2/3 -10/2/3
f -8/2/3 -11/2/3 -9/2/3
f -7/2/3 -11/2/3 -8/2/3
f -6/2/3 -10/2/3 -12/2/3
f -5/2/3 -8/2/3 -9/2/3
f -4/2/3 -8/2/3 -5/2/3
f -2/2/3 -6/2/3 -12/2/3
f -2/2/3 -3/2/3 -4/2/3
f -2/2/3 -4/2/3 -5/2/3
f -2/2/3 -5/2/3 -6/2/3
f -1/2/3 -3/2/3 -2/2/3
v -5 0 3
v -5 10 3
v -2 2 3
v -2 3 3
v -2 4 3
v -2 7 3
v -1 4 3
v -1 7 3
v -1 17 3
v -1 18 3
v 1 4 3
v 1 7 3
v 1 17 3
v 1 18 3
v 2 2 3
v 2 3 3
v 2 4 3
v 2 7 3
v 5 0 3
v 5 10 3
f -18/1/3 -19/1/3 -20/1/3
f -17/1/3 -19/1/3 -18/1/3
f -16/1/3 -19/1/3 -17/1/3
f -15/1/3 -19/1/3 -16/1/3
f -14/1/3 -16/1/3 -17/1/3
f -14/2/3 -15/2/3 -16/2/3
f -13/1/3 -19/1/3 -15/1/3
f -13/2/3 -15/2/3 -14/2/3
f -10/1/3 -14/1/3 -17/1/3
f -10/1/3 -13/1/3 -14/1/3
f -9/1/3 -19/1/3 -13/1/3
f -9/1/3 -13/1/3 -10/1/3
f -8/2/3 -11/2/3 -12/2/3
f -7/2/3 -11/2/3 -8/2/3
f -6/1/3 -18/1/3 -20/1/3
f -6/2/3 -17/2/3 -18/2/3
f -5/1/3 -10/1/3 -17/1/3
f -5/2/3 -17/2/3 -6/2/3
f -4/2/3 -9/2/3 -10/2/3
f -4/1/3 -10/1/3 -5/1/3
f -3/1/3 -19/1/3 -9/1/3
f -3/2/3 -9/2/3 -4/2/3
f -2/1/3 -4/1/3 -5/1/3
f -2/1/3 -6/1/3 -20/1/3
f -2/1/3 -3/1/3 -4/1/3
f -2/1/3 -5/1/3 -6/1/3
f -1/1/3 -19/1/3 -3/1/3
f -1/1/3 -3/1/3 -2/1/3
v -2 10 1
v -2 11 1
v 2 10 1
v 2 11 1
f -2/2/3 -3/2/3 -4/2/3
f -1/2/3 -3/2/3 -2/2/3
v -2 9 -8
v -2 12 -8
v -1 9 -8
v -1 12 -8
v 1 9 -8
v 1 12 -8
v 2 9 -8
v 2 12 -8
f -6/1/3 -7/1/3 -8/1/3
f -5/1/3 -7/1/3 -6/1/3
f -2/1/3 -3/1/3 -4/1/3
f -1/1/3 -3/1/3 -2/1/3
v -2 17 5
v -2 18 5
v -1 17 5
v -1 18 5
v 1 17 5
v 1 18 5
v 2 17 5
v 2 18 5
f -8/2/4 -7/2/4 -6/2/4
f -6/2/4 -7/2/4 -5/2/4
f -4/2/4 -3/2/4 -2/2/4
f -2/2/4 -3/2/4 -1/2/4
v -1 17 1
v -1 18 1
v 1 17 1
v 1 18 1
f -4/2/4 -3/2/4 -2/2/4
f -2/2/4 -3/2/4 -1/2/4
v -2 10 -5
v -2 11 -5
v 2 10 -5
v 2 11 -5
f -4/2/4 -3/2/4 -2/2/4
f -2/2/4 -3/2/4 -1/2/4
v -5 0 -7
v -5 10 -7
v -2 11 -7
v -2 12 -7
v 2 11 -7
v 2 12 -7
v 5 0 -7
v 5 10 -7
f -6/2/4 -5/2/4 -4/2/4
f -4/2/4 -5/2/4 -3/2/4
f -8/1/4 -7/1/4 -2/1/4
f -2/1/4 -7/1/4 -1/1/4
v -2 16 -8
v -2 17 -8
v -1 12 -8
v -1 16 -8
v 1 12 -8
v 1 16 -8
v 2 16 -8
v 2 17 -8
f -8/2/4 -7/2/4 -5/2/4
f -6/2/4 -5/2/4 -4/2/4
f -5/2/4 -7/2/4 -3/2/4
f -4/2/4 -5/2/4 -3/2/4
f -3/2/4 -7/2/4 -2/2/4
f -2/2/4 -7/2/4 -1/2/4
v -2 9 -10
v -2 16 -10
v -1 9 -10
v -1 16 -10
v 1 9 -10
v 1 16 -10
v 2 9 -10
v 2 16 -10
f -8/1/4 -7/1/4 -6/1/4
f -6/1/4 -7/1/4 -5/1/4
f -4/1/4 -3/1/4 -2/1/4
f -2/1/4 -3/1/4 -1/1/4
v -5 0 3
v 5 0 3
v -5 0 -7
v 5 0 -7
f -2/1/5 -3/1/5 -4/1/5
f -1/1/5 -3/1/5 -2/1/5
v -2 9 -8
v -1 9 -8
v 1 9 -8
v 2 9 -8
v -2 9 -10
v -1 9 -10
v 1 9 -10
v 2 9 -10
f -4/1/5 -7/1/5 -8/1/5
f -3/1/5 -7/1/5 -4/1/5
f -2/1/5 -5/1/5 -6/1/5
f -1/1/5 -5/1/5 -2/1/5
v -2 11 7
v 2 11 7
v -2 11 1
v 2 11 1
v -2 11 -5
v 2 11 -5
v -2 11 -7
v 2 11 -7
f -6/2/5 -7/2/5 -8/2/5
f -5/2/5 -7/2/5 -6/2/5
f -2/2/5 -3/2/5 -4/2/5
f -1/2/5 -3/2/5 -2/2/5
v -2 12 -7
v 2 12 -7
v -2 12 -8
v -1 12 -8
v 1 12 -8
v 2 12 -8
f -4/2/5 -5/2/5 -6/2/5
f -3/2/5 -5/2/5 -4/2/5
f -2/2/5 -5/2/5 -3/2/5
f -1/2/5 -5/2/5 -2/2/5
v -1 13 10
v 1 13 10
v -1 13 7
v 1 13 7
f -2/2/5 -3/2/5 -4/2/5
f -1/2/5 -3/2/5 -2/2/5
v -5 10 3
v 5 10 3
v -2 10 1
v 2 10 1
v -2 10 -5
v 2 10 -5
v -5 10 -7
v 5 10 -7
f -8/1/6 -7/1/6 -6/1/6
f -6/1/6 -7/1/6 -5/1/6
f -8/1/6 -6/1/6 -4/1/6
f -5/1/6 -7/1/6 -3/1/6
f -8/1/6 -4/1/6 -2/1/6
f -4/1/6 -3/1/6 -2/1/6
f -3/1/6 -7/1/6 -1/1/6
f -2/1/6 -3/1/6 -1/1/6
v -1 15 10
v 1 15 10
v -1 15 7
v 1 15 7
f -4/2/6 -3/2/6 -2/2/6
f -2/2/6 -3/2/6 -1/2/6
v -2 16 -8
v -1 16 -8
v 1 16 -8
v 2 16 -8
v -2 16 -10
v -1 16 -10
v 1 16 -10
v 2 16 -10
f -8/1/6 -7/1/6 -4/1/6
f -4/1/6 -7/1/6 -3/1/6
f -6/1/6 -5/1/6 -2/1/6
f -2/1/6 -5/1/6 -1/1/6
v -1 17 7
v 1 17 7
v -2 17 5
v -1 17 5
v 1 17 5
v 2 17 5
v -1 17 3
v 1 17 3
v -1 17 1
v 1 17 1
v -2 17 -8
v 2 17 -8
f -12/2/6 -11/2/6 -9/2/6
f -9/2/6 -11/2/6 -8/2/6
f -10/2/6 -9/2/6 -6/2/6
f -8/2/6 -7/2/6 -6/2/6
f -9/2/6 -8/2/6 -6/2/6
f -6/2/6 -7/2/6 -5/2/6
f -10/2/6 -6/2/6 -4/2/6
f -5/2/6 -7/2/6 -3/2/6
f -10/2/6 -4/2/6 -2/2/6
f -4/2/6 -3/2/6 -2/2/6
f -3/2/6 -7/2/6 -1/2/6
f -2/2/6 -3/2/6 -1/2/6
v -2 18 7
v -1 18 7
v 1 18 7
v 2 18 7
v -2 18 5
v -1 18 5
v 1 18 5
v 2 18 5
v -1 18 3
v 1 18 3
v -1 18 1
v 1 18 1
f -12/2/6 -11/2/6 -8/2/6
f -8/2/6 -11/2/6 -7/2/6
f -10/2/6 -9/2/6 -6/2/6
f -6/2/6 -9/2/6 -5/2/6
f -4/2/6 -3/2/6 -2/2/6
f -2/2/6 -3/2/6 -1/2/6
